<svg width="18" height="18" viewBox="0 0 18 18" fill="none" xmlns="http://www.w3.org/2000/svg">
<path fill-rule="evenodd" clip-rule="evenodd" d="M7.19999 10.7998C7.69704 10.7998 8.09999 11.2027 8.09999 11.6998V15.2998C8.09999 15.7969 7.69704 16.1998 7.19999 16.1998H2.69999C2.20293 16.1998 1.79999 15.7969 1.79999 15.2998V11.6998C1.79999 11.2027 2.20293 10.7998 2.69999 10.7998H7.19999ZM15.3 6.29981C15.797 6.29981 16.2 6.70275 16.2 7.19981V15.2998C16.2 15.7969 15.797 16.1998 15.3 16.1998H10.8C10.3029 16.1998 9.89999 15.7969 9.89999 15.2998V7.19981C9.89999 6.70275 10.3029 6.29981 10.8 6.29981H15.3ZM7.19999 1.7998C7.69704 1.7998 8.09999 2.20275 8.09999 2.6998V8.0998C8.09999 8.59686 7.69704 8.9998 7.19999 8.9998H2.69999C2.20293 8.9998 1.79999 8.59686 1.79999 8.0998V2.6998C1.79999 2.20275 2.20293 1.7998 2.69999 1.7998H7.19999ZM15.3 1.7998C15.797 1.7998 16.2 2.20275 16.2 2.6998V3.5998C16.2 4.09686 15.797 4.4998 15.3 4.4998H10.8C10.3029 4.4998 9.89999 4.09686 9.89999 3.5998V2.6998C9.89999 2.20275 10.3029 1.7998 10.8 1.7998H15.3Z" fill="#8B8B8B"/>
</svg>
