<svg width="18" height="18" viewBox="0 0 18 18" fill="none" xmlns="http://www.w3.org/2000/svg">
<path d="M1.79999 15.2998V5.46647C1.79999 5.06277 2.04273 4.69866 2.41537 4.54339L8.61537 1.96006C8.86153 1.8575 9.13845 1.8575 9.3846 1.96006L15.5846 4.54339C15.9573 4.69866 16.2 5.06277 16.2 5.46647V15.2998M4.56922 10.7998V7.7998C4.56922 7.24752 5.01693 6.7998 5.56922 6.7998H12.4308C12.983 6.7998 13.4308 7.24752 13.4308 7.7998V10.7998M4.56922 10.7998V13.7998C4.56922 14.3521 5.01693 14.7998 5.56922 14.7998H12.4308C12.983 14.7998 13.4308 14.3521 13.4308 13.7998V10.7998M4.56922 10.7998H13.4308" stroke="#8B8B8B" stroke-width="2" stroke-linecap="round"/>
</svg>
