<svg width="18" height="18" viewBox="0 0 18 18" fill="none" xmlns="http://www.w3.org/2000/svg">
<path d="M15.75 3.09375H2.25C2.02622 3.09375 1.81161 3.18264 1.65338 3.34088C1.49514 3.49911 1.40625 3.71372 1.40625 3.9375V13.5C1.40625 13.873 1.55441 14.2306 1.81813 14.4944C2.08185 14.7581 2.43954 14.9062 2.8125 14.9062H15.1875C15.5605 14.9063 15.9181 14.7581 16.1819 14.4944C16.4456 14.2306 16.5938 13.873 16.5938 13.5V3.9375C16.5938 3.71372 16.5049 3.49911 16.3466 3.34088C16.1884 3.18264 15.9738 3.09375 15.75 3.09375ZM3.09375 8.15625H5.34375V9.84375H3.09375V8.15625ZM7.03125 8.15625H14.9062V9.84375H7.03125V8.15625ZM14.9062 4.78125V6.46875H3.09375V4.78125H14.9062ZM3.09375 11.5312H5.34375V13.2188H3.09375V11.5312ZM7.03125 13.2188V11.5312H14.9062V13.2188H7.03125Z" fill="#848994"/>
</svg>
