<svg width="18" height="18" viewBox="0 0 18 18" fill="none" xmlns="http://www.w3.org/2000/svg">
<path d="M16.5 3.15C16.5 2.65294 16.0971 2.25 15.6 2.25H2.4C1.90294 2.25 1.5 2.65294 1.5 3.15V6.375C1.5 6.58211 1.66789 6.75 1.875 6.75C2.08211 6.75 2.25 6.91789 2.25 7.125V15C2.25 15.3978 2.40804 15.7794 2.68934 16.0607C2.97064 16.342 3.35218 16.5 3.75 16.5H14.25C14.6478 16.5 15.0294 16.342 15.3107 16.0607C15.592 15.7794 15.75 15.3978 15.75 15V7.125C15.75 6.91789 15.9179 6.75 16.125 6.75C16.3321 6.75 16.5 6.58211 16.5 6.375V3.15ZM3 4.5C3 4.08579 3.33579 3.75 3.75 3.75H14.25C14.6642 3.75 15 4.08579 15 4.5C15 4.91421 14.6642 5.25 14.25 5.25H3.75C3.33579 5.25 3 4.91421 3 4.5ZM14.25 14.1C14.25 14.5971 13.8471 15 13.35 15H4.65C4.15294 15 3.75 14.5971 3.75 14.1V7.65C3.75 7.15295 4.15294 6.75 4.65 6.75H13.35C13.8471 6.75 14.25 7.15294 14.25 7.65V14.1ZM7.012 9.09698C6.73134 8.68674 7.15294 8.25 7.65 8.25H10.35C10.8471 8.25 11.2687 8.68674 10.988 9.09698C10.936 9.17301 10.8767 9.2446 10.8107 9.31066C10.5294 9.59196 10.1478 9.75 9.75 9.75H8.25C7.85218 9.75 7.47064 9.59196 7.18934 9.31066C7.12328 9.2446 7.06401 9.17301 7.012 9.09698Z" fill="#8B8B8B"/>
</svg>
