<svg width="18" height="18" viewBox="0 0 18 18" fill="none" xmlns="http://www.w3.org/2000/svg">
<path d="M4.97052 15.7621L10.9656 2.23791H12.9902L6.97543 15.7621H4.97052ZM9.88452 12.7059C9.88452 12.2423 9.97625 11.8092 10.1597 11.4065C10.3432 11.0039 10.5921 10.6562 10.9066 10.3634C11.2342 10.0584 11.6143 9.82048 12.0467 9.64967C12.4922 9.47887 12.964 9.39346 13.4619 9.39346C13.9468 9.39346 14.3989 9.48497 14.8182 9.66797C15.2506 9.83878 15.6241 10.0767 15.9386 10.3817C16.2662 10.6745 16.5217 11.0222 16.7052 11.4248C16.9017 11.8153 17 12.2362 17 12.6876C17 13.139 16.9083 13.566 16.7248 13.9686C16.5414 14.3712 16.2858 14.7251 15.9582 15.0301C15.6306 15.3351 15.2506 15.573 14.8182 15.7438C14.3989 15.9146 13.9402 16 13.4423 16C12.9574 16 12.4988 15.9146 12.0663 15.7438C11.6339 15.573 11.2539 15.3412 10.9263 15.0484C10.6118 14.7434 10.3563 14.3895 10.1597 13.9869C9.97625 13.5843 9.88452 13.1573 9.88452 12.7059ZM13.4423 14.0418C13.6388 14.0418 13.8223 14.0052 13.9926 13.932C14.1761 13.8588 14.3333 13.7612 14.4644 13.6392C14.5954 13.5172 14.7002 13.3769 14.7789 13.2183C14.8575 13.0475 14.8968 12.8706 14.8968 12.6876C14.8968 12.5046 14.8575 12.3338 14.7789 12.1752C14.7002 12.0044 14.5954 11.858 14.4644 11.7359C14.3333 11.6139 14.1761 11.5163 13.9926 11.4431C13.8223 11.3699 13.6323 11.3333 13.4226 11.3333C13.226 11.3333 13.0426 11.3699 12.8722 11.4431C12.7019 11.5163 12.5512 11.6139 12.4201 11.7359C12.2891 11.858 12.1843 12.0044 12.1057 12.1752C12.0401 12.3338 12.0074 12.5046 12.0074 12.6876C12.0074 12.8706 12.0401 13.0475 12.1057 13.2183C12.1843 13.3769 12.2891 13.5172 12.4201 13.6392C12.5512 13.7612 12.7019 13.8588 12.8722 13.932C13.0557 14.0052 13.2457 14.0418 13.4423 14.0418ZM1 5.31242C1 4.8488 1.09173 4.41569 1.27518 4.01307C1.45864 3.61046 1.70762 3.26275 2.02211 2.96993C2.34971 2.66492 2.72973 2.42702 3.16216 2.25621C3.6077 2.0854 4.07944 2 4.5774 2C5.06224 2 5.51433 2.0915 5.93366 2.27451C6.36609 2.44532 6.73956 2.68322 7.05405 2.98824C7.38165 3.28105 7.63718 3.62876 7.82064 4.03137C8.0172 4.42179 8.11548 4.8427 8.11548 5.29412C8.11548 5.74553 8.02375 6.17255 7.8403 6.57516C7.65684 6.97778 7.40131 7.33159 7.07371 7.6366C6.74611 7.94161 6.36609 8.17952 5.93366 8.35033C5.51433 8.52113 5.05569 8.60653 4.55774 8.60653C4.07289 8.60653 3.61425 8.52113 3.18182 8.35033C2.74939 8.17952 2.36937 7.94771 2.04177 7.6549C1.72727 7.34989 1.47174 6.99608 1.27518 6.59346C1.09173 6.19085 1 5.76383 1 5.31242ZM4.55774 6.64837C4.7543 6.64837 4.93776 6.61176 5.10811 6.53856C5.29156 6.46536 5.44881 6.36776 5.57985 6.24575C5.71089 6.12375 5.81572 5.98344 5.89435 5.82484C5.97297 5.65403 6.01229 5.47712 6.01229 5.29412C6.01229 4.9159 5.86814 4.59869 5.57985 4.34248C5.30467 4.07407 4.95741 3.93987 4.53808 3.93987C4.34152 3.93987 4.15807 3.97647 3.98772 4.04967C3.81736 4.12288 3.66667 4.22048 3.53563 4.34248C3.40459 4.46449 3.29975 4.61089 3.22113 4.7817C3.15561 4.9403 3.12285 5.11111 3.12285 5.29412C3.12285 5.47712 3.15561 5.65403 3.22113 5.82484C3.29975 5.98344 3.40459 6.12375 3.53563 6.24575C3.66667 6.36776 3.81736 6.46536 3.98772 6.53856C4.17117 6.61176 4.36118 6.64837 4.55774 6.64837Z" fill="#8B8B8B"/>
</svg>
