<svg width="18" height="18" viewBox="0 0 18 18" fill="none" xmlns="http://www.w3.org/2000/svg">
<path d="M10.7636 1.7636C10.5948 1.59482 10.3659 1.5 10.1272 1.5H4.5C3.675 1.5 3 2.175 3 3V15C3 15.825 3.675 16.5 4.5 16.5H13.5C14.325 16.5 15 15.825 15 15V6.37279C15 6.1341 14.9052 5.90518 14.7364 5.7364L10.7636 1.7636ZM13.5 14.1C13.5 14.5971 13.0971 15 12.6 15H5.4C4.90294 15 4.5 14.5971 4.5 14.1V3.9C4.5 3.40294 4.90294 3 5.4 3H8.85C9.34706 3 9.75 3.40294 9.75 3.9V5.85C9.75 6.34706 10.1529 6.75 10.65 6.75H12.6C13.0971 6.75 13.5 7.15294 13.5 7.65V14.1ZM6 9.75C6.41421 9.75 6.75 10.0858 6.75 10.5V13.5C6.75 13.9142 6.41421 14.25 6 14.25C5.58579 14.25 5.25 13.9142 5.25 13.5V10.5C5.25 10.0858 5.58579 9.75 6 9.75ZM12 11.25C11.5858 11.25 11.25 11.5858 11.25 12V13.5C11.25 13.9142 11.5858 14.25 12 14.25C12.4142 14.25 12.75 13.9142 12.75 13.5V12C12.75 11.5858 12.4142 11.25 12 11.25ZM9 8.25C8.58579 8.25 8.25 8.58579 8.25 9V13.5C8.25 13.9142 8.58579 14.25 9 14.25C9.41421 14.25 9.75 13.9142 9.75 13.5V9C9.75 8.58579 9.41421 8.25 9 8.25Z" fill="#8B8B8B"/>
</svg>
