<svg width="18" height="18" viewBox="0 0 18 18" fill="none" xmlns="http://www.w3.org/2000/svg">
<path fill-rule="evenodd" clip-rule="evenodd" d="M2.59999 2.7002C3.04181 2.7002 3.39999 3.05573 3.39999 3.49431V13.8178C3.39999 14.2564 3.75816 14.6119 4.19998 14.6119H15.4C15.8418 14.6119 16.2 14.9675 16.2 15.4061C16.2 15.8446 15.8418 16.2002 15.4 16.2002H4.19998C2.8745 16.2002 1.79999 15.1336 1.79999 13.8178V3.49431C1.79999 3.05573 2.15816 2.7002 2.59999 2.7002Z" fill="#8B8B8B"/>
<path fill-rule="evenodd" clip-rule="evenodd" d="M15.9658 5.31511C16.2782 5.62523 16.2782 6.12804 15.9658 6.43816L12.4295 9.9484C11.8902 10.4837 11.0452 10.5668 10.4106 10.1468L9.06596 9.25698L6.3269 11.636C5.9944 11.9248 5.48899 11.8914 5.19804 11.5613C4.9071 11.2313 4.94079 10.7296 5.2733 10.4408L8.01235 8.06171C8.55638 7.58919 9.352 7.53746 9.95348 7.93549L11.2982 8.82535L14.8344 5.31511C15.1468 5.00499 15.6534 5.00499 15.9658 5.31511Z" fill="#8B8B8B"/>
</svg>
