<svg width="6" height="10" viewBox="0 0 6 10" fill="none" xmlns="http://www.w3.org/2000/svg">
<path fill-rule="evenodd" clip-rule="evenodd" d="M3 0.199951C3.33137 0.199951 3.6 0.46858 3.6 0.799951V7.75095L4.97574 6.37569C5.19203 6.1594 5.53237 6.14276 5.76774 6.32577L5.82426 6.37569C6.04055 6.59198 6.05719 6.93232 5.87418 7.16769L5.82426 7.22422L3.42426 9.62422L3.39789 9.64905L3.35718 9.68215L3.29044 9.72515L3.2228 9.75722L3.1596 9.77844L3.07048 9.79585L3 9.79995L2.95486 9.79828L2.87956 9.78781L2.81271 9.77011L2.74607 9.74375L2.68757 9.71235L2.62995 9.67228C2.61092 9.65735 2.59282 9.6413 2.57574 9.62422L0.175736 7.22422C-0.0585786 6.9899 -0.0585786 6.61 0.175736 6.37569C0.392026 6.1594 0.732365 6.14276 0.96774 6.32577L1.02426 6.37569L2.4 7.75095V0.799951C2.4 0.46858 2.66863 0.199951 3 0.199951Z" fill="#535862"/>
</svg>
