<svg width="13" height="12" viewBox="0 0 13 12" fill="none" xmlns="http://www.w3.org/2000/svg">
<path fill-rule="evenodd" clip-rule="evenodd" d="M6.59995 10.7997C6.26857 10.7997 5.99995 10.5311 5.99995 10.1997V3.24871L4.62421 4.62397C4.40792 4.84026 4.06758 4.8569 3.83221 4.67388L3.77568 4.62397C3.55939 4.40768 3.54275 4.06734 3.72577 3.83197L3.77568 3.77544L6.17568 1.37544L6.20206 1.3506L6.24276 1.31751L6.30951 1.27451L6.37714 1.24244L6.44035 1.22121L6.52946 1.20381L6.59995 1.19971L6.64509 1.20138L6.72038 1.21185L6.78723 1.22955L6.85388 1.25591L6.91237 1.2873L6.97 1.32738C6.98902 1.34231 7.00713 1.35836 7.02421 1.37544L9.42421 3.77544C9.65852 4.00976 9.65852 4.38966 9.42421 4.62397C9.20792 4.84026 8.86758 4.8569 8.63221 4.67388L8.57568 4.62397L7.19995 3.24871V10.1997C7.19995 10.5311 6.93132 10.7997 6.59995 10.7997Z" fill="currentColor"/>
</svg>
