<svg width="16" height="16" viewBox="0 0 16 16" fill="none" xmlns="http://www.w3.org/2000/svg">
<path fill-rule="evenodd" clip-rule="evenodd" d="M11.6 0.799805C12.0971 0.799805 12.5 1.20275 12.5 1.6998V2.5998C13.9912 2.5998 15.2 3.80864 15.2 5.2998V12.4998C15.2 13.991 13.9912 15.1998 12.5 15.1998H3.50005C2.00888 15.1998 0.800049 13.991 0.800049 12.4998V5.2998C0.800049 3.80864 2.00888 2.5998 3.50005 2.5998V1.6998C3.50005 1.20275 3.90299 0.799805 4.40005 0.799805C4.89711 0.799805 5.30005 1.20275 5.30005 1.6998V2.5998H10.7V1.6998C10.7 1.20275 11.103 0.799805 11.6 0.799805ZM13.4 7.9998H2.60005V12.4998C2.60005 12.9969 3.00299 13.3998 3.50005 13.3998H12.5C12.9971 13.3998 13.4 12.9969 13.4 12.4998V7.9998ZM12.5 4.3998H3.50005C3.00299 4.3998 2.60005 4.80275 2.60005 5.2998V6.1998H13.4V5.2998C13.4 4.80275 12.9971 4.3998 12.5 4.3998Z" fill="#8B8B8B"/>
</svg>
