<svg width="20" height="20" viewBox="0 0 20 20" fill="none" xmlns="http://www.w3.org/2000/svg">
<path fill-rule="evenodd" clip-rule="evenodd" d="M11.4141 10.0002L15.7071 5.70725C16.0981 5.31625 16.0981 4.68425 15.7071 4.29325C15.3161 3.90225 14.6841 3.90225 14.2931 4.29325L10.0001 8.58625L5.70713 4.29325C5.31613 3.90225 4.68413 3.90225 4.29313 4.29325C3.90213 4.68425 3.90213 5.31625 4.29313 5.70725L8.58613 10.0002L4.29313 14.2933C3.90213 14.6842 3.90213 15.3162 4.29313 15.7072C4.48813 15.9022 4.74413 16.0002 5.00013 16.0002C5.25613 16.0002 5.51213 15.9022 5.70713 15.7072L10.0001 11.4142L14.2931 15.7072C14.4881 15.9022 14.7441 16.0002 15.0001 16.0002C15.2561 16.0002 15.5121 15.9022 15.7071 15.7072C16.0981 15.3162 16.0981 14.6842 15.7071 14.2933L11.4141 10.0002Z" fill="currentColor"/>
</svg>
