<svg width="60" height="60" viewBox="0 0 60 60" fill="none" xmlns="http://www.w3.org/2000/svg">
<g filter="url(#filter0_dd_1436_32578)">
<path fill-rule="evenodd" clip-rule="evenodd" d="M43.7676 26.2889L42.5239 23.474C41.8578 21.9719 41.4202 20.9805 41.0006 20.4369C40.668 20.6235 40.2995 20.7373 39.9196 20.7708C39.5397 20.8043 39.157 20.7567 38.7969 20.6312C38.4688 21.2373 38.188 22.2806 37.7649 23.8497C37.4378 25.0607 37.2745 25.665 36.8795 25.9719C36.6608 26.1423 36.3988 26.2482 36.1232 26.2779C35.6277 26.3318 35.0904 26.0117 34.0165 25.3691L28.3521 21.9861C27.6905 21.5906 27.1355 21.2579 26.6636 21.0079C26.3639 21.4691 25.955 21.8669 25.4465 22.1605C24.938 22.4541 24.389 22.6093 23.8397 22.6383C23.8212 23.1735 23.831 23.8189 23.8411 24.5906L23.9402 31.1866C23.9582 32.4389 23.9668 33.0642 23.6724 33.4664C23.5088 33.6903 23.2861 33.8641 23.0292 33.9684C22.5675 34.1562 21.9625 33.9954 20.7502 33.6732C19.1798 33.255 18.1358 32.9766 17.4484 32.9567C17.377 33.3316 17.2266 33.6871 17.0074 33.9996C16.7882 34.312 16.505 34.5743 16.1768 34.769C16.4368 35.4026 17.0775 36.2788 18.0453 37.6067L19.8612 40.0912L20.7627 41.3331C23.3406 44.8932 25.4731 47.8398 27.4771 48.2585C29.7086 48.7263 31.9135 47.4532 36.3235 44.9072L39.7072 42.9536C44.1171 40.4075 46.3221 39.1345 47.0327 36.9681C47.6721 35.0232 46.1865 31.7032 44.3923 27.6905C44.1873 27.2325 43.978 26.7659 43.7676 26.2889Z" fill="#FEC84B"/>
<path d="M41.0286 20.4209C41.6439 20.0607 42.0913 19.4713 42.2727 18.7819C42.4541 18.0924 42.3547 17.3592 41.9964 16.7428C41.6381 16.1265 41.0501 15.6774 40.3612 15.4939C39.6723 15.3104 38.9387 15.4076 38.3213 15.764C37.7039 16.1205 37.2531 16.7072 37.0675 17.3955C36.882 18.0839 36.9769 18.8177 37.3315 19.4362C37.6861 20.0546 38.2714 20.5073 38.9592 20.6949C39.647 20.8825 40.3811 20.7898 41.0006 20.437L41.0286 20.4209ZM21.8554 15.9406C21.0306 16.4168 20.4287 17.2012 20.1822 18.1212C19.9357 19.0411 20.0648 20.0213 20.541 20.8462C21.0172 21.671 21.8016 22.2728 22.7215 22.5193C23.6415 22.7658 24.6217 22.6368 25.4465 22.1606C26.2713 21.6844 26.8732 20.9 27.1197 19.9801C27.3662 19.0601 27.2371 18.0799 26.7609 17.2551C26.2847 16.4302 25.5004 15.8284 24.5804 15.5819C23.6604 15.3354 22.6802 15.4644 21.8554 15.9406ZM12.4697 33.7994C12.8268 34.418 13.4151 34.8694 14.1051 35.0543C14.795 35.2392 15.5302 35.1424 16.1488 34.7852L16.1768 34.7691C16.7874 34.4084 17.2307 33.821 17.4101 33.1349C17.5895 32.4487 17.4905 31.7195 17.1346 31.1061C16.7775 30.4875 16.1892 30.0361 15.4992 29.8512C14.8092 29.6663 14.0741 29.7631 13.4555 30.1203C12.8369 30.4774 12.3855 31.0657 12.2006 31.7557C12.0157 32.4457 12.1125 33.1808 12.4697 33.7994ZM24.4267 46.0742C23.8209 45.395 23.2439 44.6905 22.6975 43.9626L45.7021 30.6809C46.0825 31.5912 46.4146 32.4465 46.6662 33.2342L24.4267 46.0742Z" fill="#F79009"/>
</g>
<defs>
<filter id="filter0_dd_1436_32578" x="-6.5978" y="-3.5978" width="73.0665" height="73.0665" filterUnits="userSpaceOnUse" color-interpolation-filters="sRGB">
<feFlood flood-opacity="0" result="BackgroundImageFix"/>
<feColorMatrix in="SourceAlpha" type="matrix" values="0 0 0 0 0 0 0 0 0 0 0 0 0 0 0 0 0 0 127 0" result="hardAlpha"/>
<feOffset dy="3"/>
<feGaussianBlur stdDeviation="3.55"/>
<feComposite in2="hardAlpha" operator="out"/>
<feColorMatrix type="matrix" values="0 0 0 0 0.966346 0 0 0 0 0.587241 0 0 0 0 0.255524 0 0 0 0.5 0"/>
<feBlend mode="normal" in2="BackgroundImageFix" result="effect1_dropShadow_1436_32578"/>
<feColorMatrix in="SourceAlpha" type="matrix" values="0 0 0 0 0 0 0 0 0 0 0 0 0 0 0 0 0 0 127 0" result="hardAlpha"/>
<feOffset dy="1"/>
<feGaussianBlur stdDeviation="1"/>
<feComposite in2="hardAlpha" operator="out"/>
<feColorMatrix type="matrix" values="0 0 0 0 0.913462 0 0 0 0 0.412375 0 0 0 0 0.197624 0 0 0 0.5 0"/>
<feBlend mode="normal" in2="effect1_dropShadow_1436_32578" result="effect2_dropShadow_1436_32578"/>
<feBlend mode="normal" in="SourceGraphic" in2="effect2_dropShadow_1436_32578" result="shape"/>
</filter>
</defs>
</svg>
