<svg width="21" height="20" viewBox="0 0 21 20" fill="none" xmlns="http://www.w3.org/2000/svg">
	<path fill-rule="evenodd" clip-rule="evenodd" d="M17.5 12C18.0128 12 18.4355 12.386 18.4933 12.8834L18.5 13V15C18.5 16.5977 17.2511 17.9037 15.6763 17.9949L15.5 18H5.5C3.90232 18 2.59634 16.7511 2.50509 15.1763L2.5 15V13C2.5 12.4477 2.94772 12 3.5 12C4.01284 12 4.43551 12.386 4.49327 12.8834L4.5 13V15C4.5 15.5128 4.88604 15.9355 5.38338 15.9933L5.5 16H15.5C16.0128 16 16.4355 15.614 16.4933 15.1166L16.5 15V13C16.5 12.4477 16.9477 12 17.5 12ZM11.2071 2.29289L14.2071 5.29289C14.5976 5.68342 14.5976 6.31658 14.2071 6.70711C13.8166 7.09763 13.1834 7.09763 12.7929 6.70711L11.5 5.414V13C11.5 13.5523 11.0523 14 10.5 14C9.98716 14 9.56449 13.614 9.50673 13.1166L9.5 13V5.414L8.20711 6.70711C7.81658 7.09763 7.18342 7.09763 6.79289 6.70711C6.40237 6.31658 6.40237 5.68342 6.79289 5.29289L9.79289 2.29289C10.1834 1.90237 10.8166 1.90237 11.2071 2.29289Z" fill="currentColor" />
</svg>
