<svg width="20" height="20" viewBox="0 0 20 20" fill="none" xmlns="http://www.w3.org/2000/svg">
<path fill-rule="evenodd" clip-rule="evenodd" d="M6.99988 14C8.10445 14 8.99988 14.8954 8.99988 16C8.99988 17.1046 8.10445 18 6.99988 18C5.89531 18 4.99988 17.1046 4.99988 16C4.99988 14.8954 5.89531 14 6.99988 14ZM12.9999 14C14.1044 14 14.9999 14.8954 14.9999 16C14.9999 17.1046 14.1044 18 12.9999 18C11.8953 18 10.9999 17.1046 10.9999 16C10.9999 14.8954 11.8953 14 12.9999 14ZM6.99988 8C8.10445 8 8.99988 8.89543 8.99988 10C8.99988 11.1046 8.10445 12 6.99988 12C5.89531 12 4.99988 11.1046 4.99988 10C4.99988 8.89543 5.89531 8 6.99988 8ZM12.9999 8C14.1044 8 14.9999 8.89543 14.9999 10C14.9999 11.1046 14.1044 12 12.9999 12C11.8953 12 10.9999 11.1046 10.9999 10C10.9999 8.89543 11.8953 8 12.9999 8ZM6.99988 2C8.10445 2 8.99988 2.89543 8.99988 4C8.99988 5.10457 8.10445 6 6.99988 6C5.89531 6 4.99988 5.10457 4.99988 4C4.99988 2.89543 5.89531 2 6.99988 2ZM12.9999 2C14.1044 2 14.9999 2.89543 14.9999 4C14.9999 5.10457 14.1044 6 12.9999 6C11.8953 6 10.9999 5.10457 10.9999 4C10.9999 2.89543 11.8953 2 12.9999 2Z" fill="currentColor"/>
</svg>
