<svg width="20" height="20" viewBox="0 0 20 20" fill="none" xmlns="http://www.w3.org/2000/svg">
<path fill-rule="evenodd" clip-rule="evenodd" d="M2 3C2 2.44772 2.44772 2 3 2C3.55228 2 4 2.44772 4 3V17C4 17.5523 3.55228 18 3 18C2.44772 18 2 17.5523 2 17V3ZM18 10L17.996 10.082L17.9798 10.2007L17.9503 10.3121L17.9063 10.4232L17.854 10.5207L17.8037 10.5952L17.7071 10.7071L14.7071 13.7071C14.3166 14.0976 13.6834 14.0976 13.2929 13.7071C12.9324 13.3466 12.9047 12.7794 13.2097 12.3871L13.2929 12.2929L14.585 11H7C6.44772 11 6 10.5523 6 10C6 9.44772 6.44772 9 7 9H14.585L13.2929 7.70711C12.9324 7.34662 12.9047 6.77939 13.2097 6.3871L13.2929 6.29289C13.6534 5.93241 14.2206 5.90468 14.6129 6.2097L14.7071 6.29289L17.7071 9.29289L17.7485 9.33685L17.8037 9.40469L17.8753 9.51594L17.9063 9.5769L17.9401 9.65835L17.9642 9.73401L17.9932 9.88253L18 10Z" fill="currentColor"/>
</svg>
