<svg width="16" height="16" viewBox="0 0 16 16" fill="none" xmlns="http://www.w3.org/2000/svg">
<path fill-rule="evenodd" clip-rule="evenodd" d="M5.29993 8.28822L0.967566 2.22292C0.54208 1.62724 0.967891 0.799805 1.69993 0.799805H14.2999C15.032 0.799805 15.4578 1.62724 15.0323 2.22292L10.6999 8.28822V12.4998C10.6999 12.8407 10.5073 13.1523 10.2024 13.3048L6.60242 15.1048C6.00401 15.404 5.29993 14.9688 5.29993 14.2998V8.28822ZM3.4488 2.5998L6.93229 7.47669C7.04132 7.62933 7.09993 7.81222 7.09993 7.9998V12.8436L8.89993 11.9436V7.9998C8.89993 7.81222 8.95854 7.62933 9.06757 7.47669L12.5511 2.5998H3.4488Z" fill="#8B8B8B"/>
</svg>
