<svg width="20" height="20" viewBox="0 0 20 20" fill="none" xmlns="http://www.w3.org/2000/svg">
<path fill-rule="evenodd" clip-rule="evenodd" d="M7.00005 10.3205L2.18632 3.58124C1.71356 2.91937 2.18668 2 3.00005 2H17.0001C17.8134 2 18.2866 2.91937 17.8138 3.58124L13.0001 10.3205V15C13.0001 15.3788 12.7861 15.725 12.4473 15.8944L8.44727 17.8944C7.78237 18.2269 7.00005 17.7434 7.00005 17V10.3205ZM4.94324 4L8.81379 9.41876C8.93493 9.58836 9.00005 9.79158 9.00005 10V15.382L11.0001 14.382V10C11.0001 9.79158 11.0652 9.58836 11.1863 9.41876L15.0569 4H4.94324Z" fill="#414651"/>
</svg>
