<svg width="7" height="10" viewBox="0 0 7 10" fill="none" xmlns="http://www.w3.org/2000/svg">
<path fill-rule="evenodd" clip-rule="evenodd" d="M3.5 9.79995C3.16863 9.79995 2.9 9.53132 2.9 9.19995V2.24895L1.52426 3.62422C1.30797 3.84051 0.967635 3.85714 0.73226 3.67413L0.675736 3.62422C0.459446 3.40792 0.442808 3.06759 0.625823 2.83221L0.675736 2.77569L3.07574 0.375687L3.10211 0.350849L3.14282 0.317752L3.20956 0.274754L3.2772 0.242686L3.3404 0.221458L3.42952 0.204052L3.5 0.199951L3.54514 0.201624L3.62044 0.212095L3.68729 0.229794L3.75393 0.256155L3.81243 0.287548L3.87005 0.327623C3.88908 0.342552 3.90718 0.358607 3.92426 0.375687L6.32426 2.77569C6.55858 3.01 6.55858 3.3899 6.32426 3.62422C6.10797 3.84051 5.76763 3.85714 5.53226 3.67413L5.47574 3.62422L4.1 2.24895V9.19995C4.1 9.53132 3.83137 9.79995 3.5 9.79995Z" fill="#027A48"/>
</svg>
