<svg width="93" height="24" viewBox="0 0 93 24" fill="none" xmlns="http://www.w3.org/2000/svg">
<path d="M7.26136 23.5L0.602273 0.227272H5.97727L9.82955 16.3977H10.0227L14.2727 0.227272H18.875L23.1136 16.4318H23.3182L27.1705 0.227272H32.5455L25.8864 23.5H21.0909L16.6591 8.28409H16.4773L12.0568 23.5H7.26136ZM40.0994 0.227272V23.5H35.179V0.227272H40.0994ZM43.8977 23.5V20.5795L55.5114 4.28409H43.875V0.227272H61.6932V3.14773L50.0682 19.4432H61.7159V23.5H43.8977ZM64.1278 0.227272H69.6392L74.946 10.25H75.1733L80.4801 0.227272H85.9915L77.5028 15.2727V23.5H72.6165V15.2727L64.1278 0.227272Z" fill="#D5D7DA"/>
</svg>
