<svg width="93" height="24" viewBox="0 0 93 24" fill="none" xmlns="http://www.w3.org/2000/svg">
<path d="M7.26136 24L0.602273 0.727272H5.97727L9.82955 16.8977H10.0227L14.2727 0.727272H18.875L23.1136 16.9318H23.3182L27.1705 0.727272H32.5455L25.8864 24H21.0909L16.6591 8.78409H16.4773L12.0568 24H7.26136ZM40.0994 0.727272V24H35.179V0.727272H40.0994ZM43.8977 24V21.0795L55.5114 4.78409H43.875V0.727272H61.6932V3.64773L50.0682 19.9432H61.7159V24H43.8977ZM64.1278 0.727272H69.6392L74.946 10.75H75.1733L80.4801 0.727272H85.9915L77.5028 15.7727V24H72.6165V15.7727L64.1278 0.727272Z" fill="#EF7721"/>
</svg>
