<svg width="16" height="16" viewBox="0 0 16 16" fill="none" xmlns="http://www.w3.org/2000/svg">
<path fill-rule="evenodd" clip-rule="evenodd" d="M8.0001 1.59961C8.44193 1.59961 8.8001 1.95778 8.8001 2.39961V7.19961H13.6001C14.0419 7.19961 14.4001 7.55778 14.4001 7.99961C14.4001 8.44144 14.0419 8.79961 13.6001 8.79961H8.8001V13.5996C8.8001 14.0414 8.44193 14.3996 8.0001 14.3996C7.55827 14.3996 7.2001 14.0414 7.2001 13.5996V8.79961H2.4001C1.95827 8.79961 1.6001 8.44144 1.6001 7.99961C1.6001 7.55778 1.95827 7.19961 2.4001 7.19961H7.2001V2.39961C7.2001 1.95778 7.55827 1.59961 8.0001 1.59961Z" fill="currentColor"/>
</svg>
