<svg width="7" height="10" viewBox="0 0 7 10" fill="none" xmlns="http://www.w3.org/2000/svg">
<path fill-rule="evenodd" clip-rule="evenodd" d="M3.5 0.199951C3.83137 0.199951 4.1 0.46858 4.1 0.799951V7.75095L5.47574 6.37569C5.69203 6.1594 6.03237 6.14276 6.26774 6.32577L6.32426 6.37569C6.54055 6.59198 6.55719 6.93232 6.37418 7.16769L6.32426 7.22422L3.92426 9.62422L3.89789 9.64905L3.85718 9.68215L3.79044 9.72515L3.7228 9.75722L3.6596 9.77844L3.57048 9.79585L3.5 9.79995L3.45486 9.79828L3.37956 9.78781L3.31271 9.77011L3.24607 9.74375L3.18757 9.71235L3.12995 9.67228C3.11092 9.65735 3.09282 9.6413 3.07574 9.62422L0.675736 7.22422C0.441421 6.9899 0.441421 6.61 0.675736 6.37569C0.892026 6.1594 1.23236 6.14276 1.46774 6.32577L1.52426 6.37569L2.9 7.75095V0.799951C2.9 0.46858 3.16863 0.199951 3.5 0.199951Z" fill="#B42318"/>
</svg>
