<svg width="16" height="16" viewBox="0 0 16 16" fill="none" xmlns="http://www.w3.org/2000/svg">
<path fill-rule="evenodd" clip-rule="evenodd" d="M6.78064 3.71967L8.20921 2.21967C8.48816 1.92678 8.94042 1.92678 9.21936 2.21967C9.47685 2.49003 9.49666 2.91546 9.27878 3.20967L9.21936 3.28033L8.92499 3.58966C11.2445 4.04521 13 6.18234 13 8.75C13 11.6495 10.7614 14 8 14C5.23858 14 3 11.6495 3 8.75C3 7.962 3.16594 7.19723 3.48144 6.49981C3.65069 6.12566 4.07677 5.96642 4.4331 6.14414C4.78944 6.32186 4.94109 6.76924 4.77183 7.14339C4.54684 7.64075 4.42857 8.18581 4.42857 8.75C4.42857 10.8211 6.02755 12.5 8 12.5C9.97245 12.5 11.5714 10.8211 11.5714 8.75C11.5714 7.13133 10.5947 5.75218 9.22632 5.22691C9.49829 5.52101 9.49582 5.99005 9.21936 6.28033C8.96187 6.55069 8.55671 6.57149 8.2765 6.34272L8.20921 6.28033L6.78064 4.78033C6.52315 4.50997 6.50334 4.08454 6.72122 3.79033L6.78064 3.71967L8.20921 2.21967L6.78064 3.71967Z" fill="#414651"/>
</svg>
