<svg width="10" height="10" viewBox="0 0 10 10" fill="none" xmlns="http://www.w3.org/2000/svg">
<path fill-rule="evenodd" clip-rule="evenodd" d="M4.5 1C6.433 1 8 2.567 8 4.5C8 5.28819 7.73946 6.01553 7.29981 6.60059L7.32725 6.62204L7.35355 6.64645L8.85355 8.14645C9.04882 8.34171 9.04882 8.65829 8.85355 8.85355C8.67331 9.0338 8.3897 9.04766 8.19355 8.89515L8.14645 8.85355L6.64645 7.35355C6.62934 7.33645 6.61374 7.31842 6.59963 7.29962C6.01553 7.73946 5.28819 8 4.5 8C2.567 8 1 6.433 1 4.5C1 2.567 2.567 1 4.5 1ZM4.5 2C3.11929 2 2 3.11929 2 4.5C2 5.88071 3.11929 7 4.5 7C5.88071 7 7 5.88071 7 4.5C7 3.11929 5.88071 2 4.5 2Z" fill="white"/>
</svg>
