<svg width="20" height="20" viewBox="0 0 20 20" fill="none" xmlns="http://www.w3.org/2000/svg">
<mask id="path-1-inside-1_3202_8001" fill="white">
<path d="M10.8604 2C11.2235 2 11.4051 2.00028 11.5518 2.05859C11.7396 2.13268 11.8938 2.27271 11.9863 2.45215C12.0587 2.59292 12.0775 2.77347 12.1133 3.13477C12.1816 3.8181 12.216 4.1603 12.3594 4.34863C12.4486 4.46539 12.5673 4.55614 12.7031 4.6123C12.8391 4.66851 12.988 4.68772 13.1338 4.66797C13.367 4.6369 13.6338 4.41996 14.165 3.98535C14.4458 3.75461 14.5865 3.63919 14.7373 3.59082C14.9294 3.52945 15.1373 3.53999 15.3223 3.62012C15.4681 3.68345 15.5977 3.81169 15.8535 4.06836L16.5986 4.81348C16.855 5.06983 16.9835 5.19807 17.0469 5.34375C17.127 5.52863 17.1374 5.73675 17.0762 5.92871C17.0278 6.07954 16.9126 6.22112 16.6826 6.50195C16.2468 7.03438 16.0287 7.30003 15.9971 7.53418C15.9776 7.67984 15.9974 7.82811 16.0537 7.96387C16.1101 8.09969 16.2014 8.21848 16.3184 8.30762C16.5059 8.45089 16.8483 8.4854 17.5322 8.55371C17.8929 8.58953 18.0742 8.60725 18.2158 8.67969C18.3945 8.77235 18.5336 8.92698 18.6074 9.11426C18.6666 9.26174 18.667 9.44337 18.667 9.80664V10.8604C18.667 11.2235 18.6667 11.4051 18.6084 11.5518C18.5343 11.7396 18.3943 11.8938 18.2148 11.9863C18.074 12.0588 17.8929 12.0774 17.5312 12.1133C16.8482 12.1816 16.5067 12.2161 16.3184 12.3594C16.2015 12.4487 16.1099 12.5672 16.0537 12.7031C15.9975 12.8391 15.9783 12.988 15.998 13.1338C16.0299 13.367 16.2479 13.6337 16.6826 14.165C16.9125 14.4458 17.0278 14.5857 17.0762 14.7373C17.1375 14.9293 17.127 15.1373 17.0469 15.3223C16.9835 15.4681 16.8553 15.5969 16.5986 15.8535L15.8535 16.5977C15.5968 16.8552 15.4681 16.9834 15.3223 17.0459C15.1373 17.126 14.9293 17.1366 14.7373 17.0752C14.5865 17.0268 14.4458 16.9116 14.165 16.6816C13.6329 16.2469 13.367 16.0291 13.1338 15.998C12.988 15.9783 12.8391 15.9975 12.7031 16.0537C12.5672 16.1099 12.4487 16.2015 12.3594 16.3184C12.2161 16.5058 12.1816 16.8474 12.1133 17.5312C12.0774 17.8929 12.0588 18.074 11.9863 18.2148C11.894 18.3941 11.7402 18.5341 11.5527 18.6084C11.4053 18.6667 11.2235 18.667 10.8604 18.667H9.80664C9.44351 18.667 9.26186 18.6666 9.11523 18.6084C8.92737 18.5343 8.77224 18.3943 8.67969 18.2148C8.60729 18.074 8.58952 17.8927 8.55371 17.5312C8.48541 16.8483 8.45088 16.5067 8.30762 16.3184C8.21841 16.2016 8.09963 16.1109 7.96387 16.0547C7.82807 15.9985 7.67983 15.9785 7.53418 15.998C7.30004 16.0289 7.03433 16.2467 6.50195 16.6816C6.22112 16.9125 6.07954 17.0278 5.92871 17.0762C5.73675 17.1374 5.52863 17.127 5.34375 17.0469C5.19807 16.9835 5.069 16.855 4.81348 16.5986L4.06836 15.8535C3.81169 15.5968 3.68345 15.4681 3.62012 15.3223C3.53999 15.1373 3.52945 14.9294 3.59082 14.7373C3.63919 14.5865 3.75446 14.4458 3.98438 14.165C4.41995 13.6329 4.63696 13.3669 4.66797 13.1328C4.68756 12.9872 4.66842 12.8389 4.6123 12.7031C4.55615 12.5674 4.46529 12.4486 4.34863 12.3594C4.16113 12.216 3.81796 12.1816 3.13379 12.1133C2.77332 12.0775 2.59277 12.0587 2.45117 11.9863C2.27257 11.8937 2.13343 11.7399 2.05957 11.5527C2.00042 11.4053 2 11.2235 2 10.8604V9.80664C2 9.44342 2.00031 9.26188 2.05859 9.11523C2.13267 8.92737 2.27266 8.77224 2.45215 8.67969C2.59287 8.60742 2.77371 8.58948 3.13477 8.55371C3.8181 8.48538 4.16113 8.45095 4.34863 8.30762C4.46552 8.21849 4.55695 8.09964 4.61328 7.96387C4.66954 7.82812 4.68844 7.67983 4.66895 7.53418C4.63727 7.30004 4.41926 7.03417 3.98438 6.50098C3.75455 6.22035 3.63922 6.08025 3.59082 5.92871C3.52947 5.73671 3.54005 5.52872 3.62012 5.34375C3.68345 5.19875 3.81169 5.06917 4.06836 4.8125L4.81348 4.06836C5.06987 3.81196 5.19809 3.68268 5.34375 3.62012C5.52866 3.53999 5.73672 3.52958 5.92871 3.59082C6.07954 3.63915 6.22112 3.75437 6.50195 3.98438C7.03414 4.41912 7.29995 4.63622 7.5332 4.66797C7.67916 4.68778 7.82776 4.66862 7.96387 4.6123C8.10001 4.55594 8.21931 4.46488 8.30859 4.34766C8.45024 4.16015 8.48538 3.81792 8.55371 3.13379C8.58948 2.77356 8.60738 2.59273 8.67969 2.45117C8.77219 2.27215 8.92684 2.13263 9.11426 2.05859C9.26175 2.00026 9.44332 2 9.80664 2H10.8604ZM10.0234 3.5C9.99827 3.7459 9.97161 3.98764 9.93457 4.19336C9.89494 4.41335 9.81879 4.76437 9.60547 5.10645L9.50488 5.25195L9.50195 5.25684C9.25205 5.5849 8.9191 5.84025 8.53809 5.99805C8.20457 6.13612 7.84408 6.19459 7.48535 6.16992L7.33203 6.1543C6.85042 6.08894 6.48285 5.85451 6.27344 5.70898C6.10184 5.58972 5.9123 5.43711 5.7207 5.28125L5.28125 5.71973C5.43711 5.9115 5.58967 6.10186 5.70898 6.27344C5.83628 6.45652 6.03321 6.76062 6.12402 7.15723L6.15527 7.33301L6.15625 7.33496L6.1709 7.48828C6.19497 7.84643 6.13613 8.20623 5.99805 8.53906C5.84026 8.91924 5.58519 9.25147 5.25781 9.50098L5.25684 9.5C4.86983 9.79506 4.44463 9.88934 4.19336 9.93457C3.98744 9.97163 3.74536 9.99739 3.5 10.0225V10.6426C3.74543 10.6676 3.9875 10.6944 4.19336 10.7314C4.44519 10.7768 4.87225 10.8708 5.25977 11.167C5.54596 11.3856 5.77584 11.6675 5.93457 11.9893L5.99805 12.1289L6.05273 12.2734C6.16771 12.6132 6.20329 12.9761 6.15527 13.333L6.1543 13.332C6.08977 13.8147 5.85596 14.1823 5.70996 14.3926C5.59049 14.5646 5.43724 14.7539 5.28125 14.9453L5.71973 15.3838C5.9115 15.2278 6.1022 15.0756 6.27441 14.9561C6.45856 14.8283 6.76423 14.6327 7.16211 14.543L7.33789 14.5107C7.69366 14.4635 8.05487 14.4996 8.39355 14.6143L8.53711 14.668L8.67773 14.7314C8.9535 14.8675 9.19996 15.0566 9.40234 15.2881L9.49902 15.4082L9.50098 15.4102L9.60254 15.5566C9.81804 15.9002 9.89478 16.2527 9.93457 16.4736C9.97166 16.6796 9.99835 16.9215 10.0234 17.167H10.6436C10.6686 16.9212 10.6943 16.6788 10.7314 16.4727C10.7712 16.252 10.8485 15.8981 11.0654 15.5537L11.167 15.4072C11.4169 15.0801 11.7494 14.8253 12.1299 14.668L12.2744 14.6133C12.6146 14.4983 12.9778 14.4633 13.335 14.5117C13.8172 14.5765 14.1836 14.8109 14.3926 14.9561C14.5641 15.0752 14.754 15.2272 14.9453 15.3828L15.3838 14.9453C15.2281 14.7541 15.0763 14.5642 14.957 14.3926C14.8294 14.2088 14.6344 13.9051 14.5439 13.5098L14.5117 13.335C14.4564 12.9267 14.5106 12.5106 14.668 12.1299L14.7314 11.9893C14.8902 11.6673 15.1218 11.3857 15.4082 11.167L15.4102 11.166L15.5566 11.0645C15.9002 10.8489 16.2526 10.7712 16.4736 10.7314C16.6796 10.6944 16.9215 10.6677 17.167 10.6426V10.0225C16.9215 9.9974 16.6795 9.97161 16.4736 9.93457C16.2222 9.88934 15.7964 9.79539 15.4092 9.5C15.0817 9.25044 14.8257 8.91934 14.668 8.53906C14.5102 8.15875 14.4561 7.74304 14.5107 7.33496V7.33301L14.543 7.1582C14.6334 6.76211 14.8289 6.45773 14.957 6.27344C15.0765 6.10166 15.2278 5.91117 15.3838 5.71973L14.9463 5.28223C14.7546 5.43834 14.5649 5.59137 14.3926 5.71094C14.1825 5.8567 13.8137 6.0913 13.3301 6.15527L13.3291 6.1543C12.9226 6.20839 12.5089 6.1557 12.1299 5.99902C11.7492 5.84164 11.417 5.58616 11.167 5.25879L11.166 5.25684C10.8719 4.87041 10.7769 4.44601 10.7314 4.19336C10.6944 3.98745 10.6686 3.74537 10.6436 3.5H10.0234ZM10.333 7.33301C11.9899 7.33301 13.333 8.67615 13.333 10.333C13.333 11.9899 11.9899 13.333 10.333 13.333C8.67615 13.333 7.33301 11.9899 7.33301 10.333C7.33301 8.67615 8.67615 7.33301 10.333 7.33301Z"/>
</mask>
<path d="M10.8604 2C11.2235 2 11.4051 2.00028 11.5518 2.05859C11.7396 2.13268 11.8938 2.27271 11.9863 2.45215C12.0587 2.59292 12.0775 2.77347 12.1133 3.13477C12.1816 3.8181 12.216 4.1603 12.3594 4.34863C12.4486 4.46539 12.5673 4.55614 12.7031 4.6123C12.8391 4.66851 12.988 4.68772 13.1338 4.66797C13.367 4.6369 13.6338 4.41996 14.165 3.98535C14.4458 3.75461 14.5865 3.63919 14.7373 3.59082C14.9294 3.52945 15.1373 3.53999 15.3223 3.62012C15.4681 3.68345 15.5977 3.81169 15.8535 4.06836L16.5986 4.81348C16.855 5.06983 16.9835 5.19807 17.0469 5.34375C17.127 5.52863 17.1374 5.73675 17.0762 5.92871C17.0278 6.07954 16.9126 6.22112 16.6826 6.50195C16.2468 7.03438 16.0287 7.30003 15.9971 7.53418C15.9776 7.67984 15.9974 7.82811 16.0537 7.96387C16.1101 8.09969 16.2014 8.21848 16.3184 8.30762C16.5059 8.45089 16.8483 8.4854 17.5322 8.55371C17.8929 8.58953 18.0742 8.60725 18.2158 8.67969C18.3945 8.77235 18.5336 8.92698 18.6074 9.11426C18.6666 9.26174 18.667 9.44337 18.667 9.80664V10.8604C18.667 11.2235 18.6667 11.4051 18.6084 11.5518C18.5343 11.7396 18.3943 11.8938 18.2148 11.9863C18.074 12.0588 17.8929 12.0774 17.5312 12.1133C16.8482 12.1816 16.5067 12.2161 16.3184 12.3594C16.2015 12.4487 16.1099 12.5672 16.0537 12.7031C15.9975 12.8391 15.9783 12.988 15.998 13.1338C16.0299 13.367 16.2479 13.6337 16.6826 14.165C16.9125 14.4458 17.0278 14.5857 17.0762 14.7373C17.1375 14.9293 17.127 15.1373 17.0469 15.3223C16.9835 15.4681 16.8553 15.5969 16.5986 15.8535L15.8535 16.5977C15.5968 16.8552 15.4681 16.9834 15.3223 17.0459C15.1373 17.126 14.9293 17.1366 14.7373 17.0752C14.5865 17.0268 14.4458 16.9116 14.165 16.6816C13.6329 16.2469 13.367 16.0291 13.1338 15.998C12.988 15.9783 12.8391 15.9975 12.7031 16.0537C12.5672 16.1099 12.4487 16.2015 12.3594 16.3184C12.2161 16.5058 12.1816 16.8474 12.1133 17.5312C12.0774 17.8929 12.0588 18.074 11.9863 18.2148C11.894 18.3941 11.7402 18.5341 11.5527 18.6084C11.4053 18.6667 11.2235 18.667 10.8604 18.667H9.80664C9.44351 18.667 9.26186 18.6666 9.11523 18.6084C8.92737 18.5343 8.77224 18.3943 8.67969 18.2148C8.60729 18.074 8.58952 17.8927 8.55371 17.5312C8.48541 16.8483 8.45088 16.5067 8.30762 16.3184C8.21841 16.2016 8.09963 16.1109 7.96387 16.0547C7.82807 15.9985 7.67983 15.9785 7.53418 15.998C7.30004 16.0289 7.03433 16.2467 6.50195 16.6816C6.22112 16.9125 6.07954 17.0278 5.92871 17.0762C5.73675 17.1374 5.52863 17.127 5.34375 17.0469C5.19807 16.9835 5.069 16.855 4.81348 16.5986L4.06836 15.8535C3.81169 15.5968 3.68345 15.4681 3.62012 15.3223C3.53999 15.1373 3.52945 14.9294 3.59082 14.7373C3.63919 14.5865 3.75446 14.4458 3.98438 14.165C4.41995 13.6329 4.63696 13.3669 4.66797 13.1328C4.68756 12.9872 4.66842 12.8389 4.6123 12.7031C4.55615 12.5674 4.46529 12.4486 4.34863 12.3594C4.16113 12.216 3.81796 12.1816 3.13379 12.1133C2.77332 12.0775 2.59277 12.0587 2.45117 11.9863C2.27257 11.8937 2.13343 11.7399 2.05957 11.5527C2.00042 11.4053 2 11.2235 2 10.8604V9.80664C2 9.44342 2.00031 9.26188 2.05859 9.11523C2.13267 8.92737 2.27266 8.77224 2.45215 8.67969C2.59287 8.60742 2.77371 8.58948 3.13477 8.55371C3.8181 8.48538 4.16113 8.45095 4.34863 8.30762C4.46552 8.21849 4.55695 8.09964 4.61328 7.96387C4.66954 7.82812 4.68844 7.67983 4.66895 7.53418C4.63727 7.30004 4.41926 7.03417 3.98438 6.50098C3.75455 6.22035 3.63922 6.08025 3.59082 5.92871C3.52947 5.73671 3.54005 5.52872 3.62012 5.34375C3.68345 5.19875 3.81169 5.06917 4.06836 4.8125L4.81348 4.06836C5.06987 3.81196 5.19809 3.68268 5.34375 3.62012C5.52866 3.53999 5.73672 3.52958 5.92871 3.59082C6.07954 3.63915 6.22112 3.75437 6.50195 3.98438C7.03414 4.41912 7.29995 4.63622 7.5332 4.66797C7.67916 4.68778 7.82776 4.66862 7.96387 4.6123C8.10001 4.55594 8.21931 4.46488 8.30859 4.34766C8.45024 4.16015 8.48538 3.81792 8.55371 3.13379C8.58948 2.77356 8.60738 2.59273 8.67969 2.45117C8.77219 2.27215 8.92684 2.13263 9.11426 2.05859C9.26175 2.00026 9.44332 2 9.80664 2H10.8604ZM10.0234 3.5C9.99827 3.7459 9.97161 3.98764 9.93457 4.19336C9.89494 4.41335 9.81879 4.76437 9.60547 5.10645L9.50488 5.25195L9.50195 5.25684C9.25205 5.5849 8.9191 5.84025 8.53809 5.99805C8.20457 6.13612 7.84408 6.19459 7.48535 6.16992L7.33203 6.1543C6.85042 6.08894 6.48285 5.85451 6.27344 5.70898C6.10184 5.58972 5.9123 5.43711 5.7207 5.28125L5.28125 5.71973C5.43711 5.9115 5.58967 6.10186 5.70898 6.27344C5.83628 6.45652 6.03321 6.76062 6.12402 7.15723L6.15527 7.33301L6.15625 7.33496L6.1709 7.48828C6.19497 7.84643 6.13613 8.20623 5.99805 8.53906C5.84026 8.91924 5.58519 9.25147 5.25781 9.50098L5.25684 9.5C4.86983 9.79506 4.44463 9.88934 4.19336 9.93457C3.98744 9.97163 3.74536 9.99739 3.5 10.0225V10.6426C3.74543 10.6676 3.9875 10.6944 4.19336 10.7314C4.44519 10.7768 4.87225 10.8708 5.25977 11.167C5.54596 11.3856 5.77584 11.6675 5.93457 11.9893L5.99805 12.1289L6.05273 12.2734C6.16771 12.6132 6.20329 12.9761 6.15527 13.333L6.1543 13.332C6.08977 13.8147 5.85596 14.1823 5.70996 14.3926C5.59049 14.5646 5.43724 14.7539 5.28125 14.9453L5.71973 15.3838C5.9115 15.2278 6.1022 15.0756 6.27441 14.9561C6.45856 14.8283 6.76423 14.6327 7.16211 14.543L7.33789 14.5107C7.69366 14.4635 8.05487 14.4996 8.39355 14.6143L8.53711 14.668L8.67773 14.7314C8.9535 14.8675 9.19996 15.0566 9.40234 15.2881L9.49902 15.4082L9.50098 15.4102L9.60254 15.5566C9.81804 15.9002 9.89478 16.2527 9.93457 16.4736C9.97166 16.6796 9.99835 16.9215 10.0234 17.167H10.6436C10.6686 16.9212 10.6943 16.6788 10.7314 16.4727C10.7712 16.252 10.8485 15.8981 11.0654 15.5537L11.167 15.4072C11.4169 15.0801 11.7494 14.8253 12.1299 14.668L12.2744 14.6133C12.6146 14.4983 12.9778 14.4633 13.335 14.5117C13.8172 14.5765 14.1836 14.8109 14.3926 14.9561C14.5641 15.0752 14.754 15.2272 14.9453 15.3828L15.3838 14.9453C15.2281 14.7541 15.0763 14.5642 14.957 14.3926C14.8294 14.2088 14.6344 13.9051 14.5439 13.5098L14.5117 13.335C14.4564 12.9267 14.5106 12.5106 14.668 12.1299L14.7314 11.9893C14.8902 11.6673 15.1218 11.3857 15.4082 11.167L15.4102 11.166L15.5566 11.0645C15.9002 10.8489 16.2526 10.7712 16.4736 10.7314C16.6796 10.6944 16.9215 10.6677 17.167 10.6426V10.0225C16.9215 9.9974 16.6795 9.97161 16.4736 9.93457C16.2222 9.88934 15.7964 9.79539 15.4092 9.5C15.0817 9.25044 14.8257 8.91934 14.668 8.53906C14.5102 8.15875 14.4561 7.74304 14.5107 7.33496V7.33301L14.543 7.1582C14.6334 6.76211 14.8289 6.45773 14.957 6.27344C15.0765 6.10166 15.2278 5.91117 15.3838 5.71973L14.9463 5.28223C14.7546 5.43834 14.5649 5.59137 14.3926 5.71094C14.1825 5.8567 13.8137 6.0913 13.3301 6.15527L13.3291 6.1543C12.9226 6.20839 12.5089 6.1557 12.1299 5.99902C11.7492 5.84164 11.417 5.58616 11.167 5.25879L11.166 5.25684C10.8719 4.87041 10.7769 4.44601 10.7314 4.19336C10.6944 3.98745 10.6686 3.74537 10.6436 3.5H10.0234ZM10.333 7.33301C11.9899 7.33301 13.333 8.67615 13.333 10.333C13.333 11.9899 11.9899 13.333 10.333 13.333C8.67615 13.333 7.33301 11.9899 7.33301 10.333C7.33301 8.67615 8.67615 7.33301 10.333 7.33301Z" stroke="currentColor" stroke-width="4" mask="url(#path-1-inside-1_3202_8001)"/>
</svg>
