<svg width="13" height="12" viewBox="0 0 13 12" fill="none" xmlns="http://www.w3.org/2000/svg">
<path fill-rule="evenodd" clip-rule="evenodd" d="M6.02429 3.17569L6.0742 3.23221C6.24198 3.44797 6.24198 3.75192 6.0742 3.96768L6.02429 4.0242L5.96776 4.07412C5.75198 4.24188 5.448 4.24188 5.23223 4.07412L5.1757 4.0242L4.39969 3.24887L4.39991 8.99987C4.39991 9.30757 4.16828 9.56117 3.86988 9.59583L3.79991 9.59987L3.72985 9.59583C3.4544 9.56384 3.23585 9.34529 3.20386 9.06984L3.19982 8.99987L3.19969 3.24887L2.42403 4.0242L2.3675 4.07412C2.13211 4.25713 1.79174 4.24049 1.57544 4.0242C1.35913 3.80792 1.34249 3.46758 1.52552 3.23221L1.57544 3.17569L3.37555 1.37571L3.44784 1.31401L3.49737 1.28163L3.56808 1.24636L3.62729 1.2252L3.71044 1.20659L3.76757 1.20068L3.83236 1.20085L3.88895 1.20659L3.97259 1.22525L4.04858 1.25377L4.11162 1.2872L4.1609 1.32065L4.19918 1.3521L4.22417 1.37571L6.02429 3.17569L6.0742 3.23221L6.02429 3.17569ZM10.8743 8.76821L10.8244 8.82473L9.0243 10.6247L8.97299 10.6705L8.93076 10.7012L8.87249 10.7352L8.82876 10.7553L8.78826 10.7703L8.75736 10.7795L8.68908 10.7938L8.63249 10.7996L8.55517 10.7986L8.51057 10.7938L8.42742 10.7752L8.35212 10.747L8.2975 10.7188L8.24797 10.6864L8.22217 10.666L8.1757 10.6247L6.37557 8.82473C6.14124 8.59042 6.14124 8.21053 6.37557 7.97622C6.59187 7.75993 6.93224 7.74329 7.16763 7.9263L7.22416 7.97622L7.99982 8.75155L7.99995 3.00055C7.99995 2.69285 8.23157 2.43925 8.52998 2.40459L8.60004 2.40055C8.93141 2.40055 9.20004 2.66918 9.20004 3.00055L9.19982 8.75155L9.97583 7.97622C10.1921 7.75993 10.5325 7.74329 10.7679 7.9263L10.8244 7.97622C11.0407 8.19251 11.0574 8.53284 10.8743 8.76821Z" fill="currentColor"/>
</svg>
