<svg width="16" height="16" viewBox="0 0 16 16" fill="none" xmlns="http://www.w3.org/2000/svg">
<path fill-rule="evenodd" clip-rule="evenodd" d="M8.0001 14.4004C11.5347 14.4004 14.4001 11.535 14.4001 8.00039C14.4001 4.46577 11.5347 1.60039 8.0001 1.60039C4.46547 1.60039 1.6001 4.46577 1.6001 8.00039C1.6001 11.535 4.46547 14.4004 8.0001 14.4004ZM8.0001 12.8004C10.6511 12.8004 12.8001 10.6514 12.8001 8.00039C12.8001 5.34942 10.6511 3.20039 8.0001 3.20039C5.34913 3.20039 3.2001 5.34942 3.2001 8.00039C3.2001 10.6514 5.34913 12.8004 8.0001 12.8004ZM8.0001 5.60039C7.55827 5.60039 7.2001 5.24222 7.2001 4.80039C7.2001 4.35856 7.55827 4.00039 8.0001 4.00039C8.44193 4.00039 8.8001 4.35856 8.8001 4.80039C8.8001 5.24222 8.44193 5.60039 8.0001 5.60039ZM8.0001 12.0004C7.58983 12.0004 7.25169 11.6916 7.20548 11.2937L7.2001 11.2004V7.20039C7.2001 6.75856 7.55827 6.40039 8.0001 6.40039C8.41037 6.40039 8.7485 6.70922 8.79472 7.10709L8.8001 7.20039V11.2004C8.8001 11.6422 8.44193 12.0004 8.0001 12.0004Z" fill="currentColor"/>
</svg>
