<svg width="15" height="16" viewBox="0 0 15 16" fill="none" xmlns="http://www.w3.org/2000/svg">
<path fill-rule="evenodd" clip-rule="evenodd" d="M12.5 6C13.0523 6 13.5 6.44772 13.5 7V13C13.5 14.6569 12.1569 16 10.5 16H4.5C2.84315 16 1.5 14.6569 1.5 13V7C1.5 6.44772 1.94772 6 2.5 6H12.5ZM11.5 8H3.5V13C3.5 13.5523 3.94772 14 4.5 14H10.5C11.0523 14 11.5 13.5523 11.5 13V8ZM4.5 1C4.5 0.447715 4.94772 0 5.5 0H9.5C10.0523 0 10.5 0.447715 10.5 1V2H13.5C14.0523 2 14.5 2.44772 14.5 3C14.5 3.55228 14.0523 4 13.5 4H1.5C0.947715 4 0.5 3.55228 0.5 3C0.5 2.44772 0.947715 2 1.5 2H4.5V1Z" fill="#B42318"/>
</svg>
