<svg width="14" height="14" viewBox="0 0 14 14" fill="none" xmlns="http://www.w3.org/2000/svg">
<path fill-rule="evenodd" clip-rule="evenodd" d="M12.5 8.99996C12.9274 8.99996 13.2796 9.32166 13.3278 9.73611L13.3334 9.83329V11.5C13.3334 12.8314 12.2926 13.9197 10.9803 13.9957L10.8334 14H2.50005C1.16864 14 0.0803284 12.9592 0.00428969 11.6469L4.57764e-05 11.5V9.83329C4.57764e-05 9.37306 0.373142 8.99996 0.833379 8.99996C1.26074 8.99996 1.61297 9.32166 1.66111 9.73611L1.66671 9.83329V11.5C1.66671 11.9273 1.98841 12.2795 2.40286 12.3277L2.50005 12.3333H10.8334C11.2607 12.3333 11.613 12.0116 11.6611 11.5971L11.6667 11.5V9.83329C11.6667 9.37306 12.0398 8.99996 12.5 8.99996ZM7.25597 0.910704L9.75597 3.4107C10.0814 3.73614 10.0814 4.26378 9.75597 4.58921C9.43053 4.91465 8.90289 4.91465 8.57746 4.58921L7.50005 3.51163V9.83329C7.50005 10.2935 7.12695 10.6666 6.66671 10.6666C6.23935 10.6666 5.88712 10.3449 5.83899 9.93048L5.83338 9.83329V3.51163L4.75597 4.58921C4.43053 4.91465 3.90289 4.91465 3.57746 4.58921C3.25202 4.26378 3.25202 3.73614 3.57746 3.4107L6.07746 0.910704C6.40289 0.585267 6.93053 0.585267 7.25597 0.910704Z" fill="#8B8B8B"/>
</svg>
