<svg width="17" height="18" viewBox="0 0 17 18" fill="none" xmlns="http://www.w3.org/2000/svg">
<path fill-rule="evenodd" clip-rule="evenodd" d="M9.59935 2.84787C9.9309 3.01364 10.1997 3.28248 10.3655 3.61403L15.1521 13.1873C15.5753 14.0336 15.2323 15.0626 14.386 15.4858C14.1481 15.6047 13.8858 15.6666 13.6198 15.6666H4.04656C3.10039 15.6666 2.33337 14.8996 2.33337 13.9534C2.33337 13.6875 2.3953 13.4252 2.51424 13.1873L7.30087 3.61403C7.724 2.76775 8.75307 2.42473 9.59935 2.84787ZM8.83337 12.4166C8.38464 12.4166 8.02087 12.7804 8.02087 13.2291C8.02087 13.6779 8.38464 14.0416 8.83337 14.0416C9.28211 14.0416 9.64587 13.6779 9.64587 13.2291C9.64587 12.7804 9.28211 12.4166 8.83337 12.4166ZM8.83337 5.91663C8.41669 5.91663 8.07327 6.23028 8.02634 6.63437L8.02087 6.72913V9.97913C8.02087 10.4279 8.38464 10.7916 8.83337 10.7916C9.25005 10.7916 9.59347 10.478 9.64041 10.0739L9.64587 9.97913V6.72913C9.64587 6.28039 9.28211 5.91663 8.83337 5.91663Z" fill="#8B8B8B"/>
</svg>
